<?xml version="1.0" encoding="iso-8859-1"?>
<!-- Generator: Adobe Illustrator 19.0.0, SVG Export Plug-In . SVG Version: 6.00 Build 0)  -->
<svg version="1.1" id="Layer_1" xmlns="http://www.w3.org/2000/svg" xmlns:xlink="http://www.w3.org/1999/xlink" x="0px" y="0px"
	 viewBox="0 0 511.999 511.999" style="enable-background:new 0 0 511.999 511.999;" xml:space="preserve">
<g>
	<g>
		<g>
			<path d="M168.173,4.609c-5.024-6.149-14.432-6.142-19.45,0C108.758,53.563,13.625,181.93,13.625,247.472
				c0,79.855,64.968,144.822,144.824,144.822c79.855,0,144.822-64.968,144.822-144.822
				C303.271,181.883,207.683,53.005,168.173,4.609z M158.447,367.177c-66.006,0-119.705-53.699-119.705-119.703
				c0-51.696,79.002-162.973,119.705-214.808C199.15,84.501,278.15,195.779,278.15,247.474
				C278.152,313.478,224.453,367.177,158.447,367.177z"/>
			<path d="M141.081,120.039c-5.772-3.848-13.568-2.289-17.416,3.483c-25.96,38.938-43.874,71.485-53.249,96.74
				c-2.413,6.502,0.901,13.732,7.403,16.145c6.502,2.413,13.73-0.901,16.145-7.403c5.978-16.106,19.609-45.063,50.599-91.547
				C148.413,131.684,146.854,123.887,141.081,120.039z"/>
			<path d="M135.135,312.917c-15.743-5.627-28.962-16.778-37.223-31.399c-3.413-6.04-11.077-8.169-17.113-4.756
				c-6.039,3.413-8.169,11.074-4.756,17.113c11.23,19.872,29.212,35.036,50.636,42.695c6.548,2.336,13.723-1.08,16.054-7.599
				C145.069,322.44,141.666,315.251,135.135,312.917z"/>
			<path d="M409.303,252.086c-5.022-6.149-14.433-6.144-19.45,0c-9.116,11.158-89.072,110.471-89.072,161.116
				c0,54.478,44.321,98.798,98.798,98.798c54.476,0,98.796-44.32,98.796-98.798C498.374,362.559,418.421,263.243,409.303,252.086z
				 M399.578,486.88c-40.627,0-73.679-33.051-73.679-73.679c0-33.425,53.468-106.626,73.679-132.869
				c20.325,26.385,73.677,99.486,73.677,132.869C473.255,453.829,440.202,486.88,399.578,486.88z"/>
			<path d="M384.949,351.389c-5.938-3.589-13.66-1.685-17.247,4.252c-16.038,26.536-21.907,42.258-24.007,50.777
				c-1.659,6.734,2.455,13.539,9.189,15.2c6.739,1.659,13.541-2.457,15.2-9.188c1.109-4.498,5.385-17.771,21.115-43.796
				C392.789,362.698,390.885,354.978,384.949,351.389z"/>
		</g>
	</g>
</g>
<g>
</g>
<g>
</g>
<g>
</g>
<g>
</g>
<g>
</g>
<g>
</g>
<g>
</g>
<g>
</g>
<g>
</g>
<g>
</g>
<g>
</g>
<g>
</g>
<g>
</g>
<g>
</g>
<g>
</g>
</svg>
